<svg id="Layer_1" data-name="Layer 1" xmlns="http://www.w3.org/2000/svg" viewBox="0 0 34.2 29.45"><defs><style>.cls-1{fill:#fff;}</style></defs><title>M&amp;amp;T icons</title><path class="cls-1" d="M16,1.7a13.07,13.07,0,0,1,9.24,22.35A13.07,13.07,0,1,1,6.77,5.57,13,13,0,0,1,16,1.7Zm8.6,4.5A12.18,12.18,0,0,0,16,2.65,12.12,12.12,0,0,0,3.85,14.81a12.18,12.18,0,0,0,3.55,8.6A12.35,12.35,0,0,0,16,27a12.49,12.49,0,0,0,8.6-3.56,12.49,12.49,0,0,0,3.56-8.6A12.35,12.35,0,0,0,24.61,6.2Zm-3.47,9.32-3.63,2.05L14,19.62c-.63.4-1.26.32-1.26-.71V10.62c0-.87.47-1.18,1.19-.71L17.51,12,21.14,14A.81.81,0,0,1,21.14,15.52Z"/></svg>