<svg id="Layer_1" data-name="Layer 1" xmlns="http://www.w3.org/2000/svg" viewBox="0 0 33.13 30.09"><defs><style>.cls-1{fill:#fff;}</style></defs><title>M&amp;amp;T icons</title><path class="cls-1" d="M25.81,27.82H5.75a4.12,4.12,0,0,1-3.56-6.17l10-17.37a4.12,4.12,0,0,1,7.12,0l10,17.37a4.12,4.12,0,0,1-3.56,6.17Zm-10-24.4a2.93,2.93,0,0,0-2.53,1.46l-10,17.36a2.93,2.93,0,0,0,2.53,4.39H25.81a2.93,2.93,0,0,0,2.53-4.39l-10-17.36A2.93,2.93,0,0,0,15.78,3.42Z"/><path class="cls-1" d="M16.79,19.3a1,1,0,0,1-1,1h0a1,1,0,0,1-1-1l-.66-9.2c0-.56,1.11-1.24,1.67-1.24h0c.56,0,1.67.68,1.67,1.24Z"/><path class="cls-1" d="M16.85,22.42a1,1,0,0,1-1,1h-.05a1,1,0,0,1-1-1v-.05a1,1,0,0,1,1-1h.05a1,1,0,0,1,1,1Z"/></svg>