<svg id="Layer_1" data-name="Layer 1" xmlns="http://www.w3.org/2000/svg" viewBox="0 0 38.32 36.74"><defs><style>.cls-1{fill:#fff;}</style></defs><title>M&amp;amp;T icons</title><path class="cls-1" d="M30.11,14.46h.5V9a2.44,2.44,0,0,0-2.44-2.44H26.05A2.44,2.44,0,0,0,23.61,9V9h.5l.34-.37-3.35-3h0a1.45,1.45,0,0,0-2,0h0L5.55,17.94l.33.37-.3-.4A1.47,1.47,0,0,0,5.31,20a1.46,1.46,0,0,0,2.06.26h0l.13-.11.78-.7V31.78a1.47,1.47,0,0,0,1.47,1.47H30.49A1.47,1.47,0,0,0,32,31.78V19.41l.78.7.34-.38-.37.35a1.48,1.48,0,0,0,1.06.45,1.46,1.46,0,0,0,1-.4,1.48,1.48,0,0,0,.45-1.07,1.45,1.45,0,0,0-.4-1l0,0-.12-.1-4.26-3.84-.33.37h0l-.34.37L34,18.67l.11.09.33-.37-.36.35a.45.45,0,0,1,.13.32.44.44,0,0,1-.14.34.46.46,0,0,1-.33.13.43.43,0,0,1-.33-.14h0L31,17.16V31.78a.47.47,0,0,1-.47.47H9.76a.47.47,0,0,1-.47-.47V17.18l-2.45,2.2-.11.09.34.37-.31-.39a.63.63,0,0,1-.29.1.52.52,0,0,1-.37-.19.42.42,0,0,1-.1-.28.47.47,0,0,1,.19-.37v0L19.81,6.38h0a.47.47,0,0,1,.31-.12.47.47,0,0,1,.32.12h0l4.18,3.78V9a1.45,1.45,0,0,1,1.44-1.44h2.12A1.45,1.45,0,0,1,29.61,9v5.7l.16.15ZM22.76,30.81v-.5H18v-5a2.14,2.14,0,1,1,4.27,0v5.54h.5v0h.5V25.27a3.14,3.14,0,1,0-6.27,0v6h6.27v-.5Z"/></svg>