<svg id="Layer_1" data-name="Layer 1" xmlns="http://www.w3.org/2000/svg" viewBox="0 0 29.24 26.92"><defs><style>.cls-1{fill:#fff;}</style></defs><title>M&amp;amp;T icons</title><path class="cls-1" d="M9.08,11.28l4.8,4.8a.63.63,0,0,0,.88,0L26.35,4.49a.63.63,0,1,0-.88-.89L14.32,14.75,10,10.4a.61.61,0,0,0-.88,0,.63.63,0,0,0,0,.88Z"/><path class="cls-1" d="M24.75,10a10.42,10.42,0,0,1,.54,3.33A10.66,10.66,0,1,1,14.62,2.7a10.53,10.53,0,0,1,5,1.25.63.63,0,0,0,.59-1.11,11.93,11.93,0,1,0,5.73,6.8.63.63,0,0,0-1.19.4Z"/></svg>