<svg id="Layer_1" data-name="Layer 1" xmlns="http://www.w3.org/2000/svg" viewBox="0 0 32.04 26.92"><defs><style>.cls-1{fill:#2c2e66;}</style></defs><title>M&amp;amp;T icons</title><path class="cls-1" d="M24.18,9.93a10.81,10.81,0,0,1,.53,3.34A10.66,10.66,0,1,1,19,3.84a.62.62,0,0,0,.85-.25.64.64,0,0,0-.26-.85A11.92,11.92,0,1,0,26,13.27a12.13,12.13,0,0,0-.59-3.73.64.64,0,0,0-.79-.4.63.63,0,0,0-.4.79Z"/><path class="cls-1" d="M9.89,12.26H19A.63.63,0,0,0,19,11H9.89a.63.63,0,0,0,0,1.25"/><path class="cls-1" d="M9.89,16.24H19a.63.63,0,0,0,.62-.63A.62.62,0,0,0,19,15H9.89a.62.62,0,0,0-.62.62.63.63,0,0,0,.62.63"/></svg>