<svg id="Layer_1" data-name="Layer 1" xmlns="http://www.w3.org/2000/svg" viewBox="0 0 35.15 33.57"><defs><style>.cls-1{fill:#fff;}</style></defs><title>M&amp;amp;T icons</title><path class="cls-1" d="M32.54,16,32,9.44a.84.84,0,0,0-.84-.8L24.6,8.06a.94.94,0,0,0-1,.85.85.85,0,0,0,.75.93h.05l4.68.4L21.39,18,17.6,14.21a.84.84,0,0,0-1.19-.05l-.06.05L8,22.5a.94.94,0,0,0,0,1.3.85.85,0,0,0,1.19.05l.06-.05L17,16.08l3.79,3.79a.93.93,0,0,0,1.25,0l8.33-8.38.4,4.68a.91.91,0,0,0,.9.81h.09a.86.86,0,0,0,.8-.89Z"/><path class="cls-1" d="M4,5a.89.89,0,0,0-.9.89V27.76a3.12,3.12,0,0,0,3.12,3.12H30.31a.89.89,0,0,0,0-1.78H6.23A1.28,1.28,0,0,1,4.9,27.85V5.92A.89.89,0,0,0,4,5Z"/></svg>